<?xml version="1.0" standalone="no"?><!DOCTYPE svg PUBLIC "-//W3C//DTD SVG 1.1//EN" "http://www.w3.org/Graphics/SVG/1.1/DTD/svg11.dtd"><svg t="1737638663051" class="icon" viewBox="0 0 1024 1024" version="1.1" xmlns="http://www.w3.org/2000/svg" p-id="9648" xmlns:xlink="http://www.w3.org/1999/xlink" width="200" height="200"><path d="M271.802 512a284.444 284.444 0 1 0 568.89 0 284.444 284.444 0 1 0-568.89 0z" fill="#E9EAEB" p-id="9649"></path><path d="M739.556 809.086h-12.642V707.951h12.642c13.906 0 25.284-11.378 25.284-25.284s-11.378-25.284-25.284-25.284h-35.398c29.077-16.435 48.04-46.776 48.04-82.173 0-51.832-42.983-94.815-94.815-94.815-45.511 0-83.437 32.87-92.287 75.852l10.114 12.642-50.568 75.852v37.926h12.642c21.491 0 37.926 16.434 37.926 37.926v37.926h12.642c21.491 0 37.926 16.434 37.926 37.925v88.494H777.48v-37.926c0-21.491-16.434-37.926-37.925-37.926z" fill="#A3D4FF" p-id="9650"></path><path d="M537.284 404.543l37.926 37.926 50.568-50.568v-37.926L509.472 235.141l53.096-51.832c-34.133-27.813-78.38-44.247-126.42-44.247-111.25 0-202.271 91.022-202.271 202.271v202.272l50.567 37.926v101.136h-12.642c-21.49 0-37.925 16.434-37.925 37.926v37.926h-12.642c-21.492 0-37.926 16.434-37.926 37.925v88.494h442.469v-88.494c0-21.49-16.435-37.925-37.926-37.925H575.21v-37.926c0-21.492-16.435-37.926-37.926-37.926h-12.642V644.74l50.568-75.852-101.136-126.42v-37.926h63.21z" fill="#FFFFFF" p-id="9651"></path><path d="M246.519 758.519h-25.284v-37.926c0-27.813 22.755-50.568 50.567-50.568h101.136v25.284H271.802c-13.906 0-25.283 11.377-25.283 25.284v37.926z m341.333 0h-25.284v-37.926c0-13.907-11.378-25.284-25.284-25.284h-63.21v-25.284h63.21c27.812 0 50.568 22.755 50.568 50.568v37.926z" fill="#2A5082" p-id="9652"></path><path d="M638.42 897.58H170.667V796.444c0-27.812 22.755-50.567 50.568-50.567h189.63v25.283h-189.63c-13.907 0-25.284 11.378-25.284 25.284v75.852h417.185v-75.852c0-13.906-11.378-25.284-25.284-25.284h-88.494v-25.283h88.494c27.812 0 50.568 22.755 50.568 50.567V897.58z" fill="#2A5082" p-id="9653"></path><path d="M436.148 745.877h25.284v25.283h-25.284z m-37.926-75.852h25.284v25.284h-25.284z m139.062 12.642H512v-41.719l48.04-70.795-98.608-122.627v-42.983h25.284v32.87L590.38 567.624l-53.096 80.908z m-240.198 0h-25.284v-94.815l-50.567-37.926V341.333c0-118.834 96.079-214.913 214.913-214.913 49.304 0 96.08 16.434 134.005 46.775l11.378 8.85-56.889 58.153-17.699-17.7 36.662-36.661c-31.605-22.756-68.267-34.133-107.457-34.133-104.928 0-189.63 84.7-189.63 189.63v195.95l50.568 37.926v107.457z" fill="#2A5082" p-id="9654"></path><path d="M575.21 460.168l-42.983-42.983H448.79c-41.718 0-75.852-34.133-75.852-75.852h25.284c0 27.813 22.756 50.568 50.568 50.568h93.55l32.87 32.87 37.926-37.927v-27.812l-135.27-135.269 17.7-17.699L638.42 348.92v48.039l-63.21 63.21z m-278.124-55.625h-25.284v-63.21c0-91.022 73.324-164.345 164.346-164.345v25.284c-77.116 0-139.062 61.945-139.062 139.061v63.21zM790.123 897.58H537.284v-25.284H764.84v-25.284c0-13.906-11.378-25.284-25.284-25.284h-25.284v-126.42h25.284c7.585 0 12.642-5.056 12.642-12.641s-5.057-12.642-12.642-12.642h-82.173l40.454-24.02c25.284-15.17 41.719-41.719 41.719-70.795 0-45.511-36.662-82.173-82.173-82.173-26.548 0-50.568 11.378-65.739 32.87l-20.227-15.171c20.227-27.813 51.832-42.983 85.966-42.983 59.417 0 107.457 48.04 107.457 107.457 0 25.284-8.85 50.568-25.284 69.53 21.49 0 37.925 16.435 37.925 37.927s-16.434 37.926-37.925 37.926v75.851c27.812 0 50.567 22.756 50.567 50.568v50.568z" fill="#2A5082" p-id="9655"></path><path d="M638.42 644.74h63.21v25.285h-63.21z m25.284 50.569h63.21v25.284h-63.21z m0 101.135h63.21v25.284h-63.21zM625.778 568.89h-25.284c0-27.812 22.755-50.568 50.568-50.568v25.284c-13.906 0-25.284 11.378-25.284 25.284z" fill="#2A5082" p-id="9656"></path></svg>